<?xml version="1.0" encoding="UTF-8" standalone="no"?>
<!-- Created with Inkscape (http://www.inkscape.org/) -->

<svg
   xmlns:dc="http://purl.org/dc/elements/1.1/"
   xmlns:cc="http://creativecommons.org/ns#"
   xmlns:rdf="http://www.w3.org/1999/02/22-rdf-syntax-ns#"
   xmlns:svg="http://www.w3.org/2000/svg"
   xmlns="http://www.w3.org/2000/svg"
   xmlns:sodipodi="http://sodipodi.sourceforge.net/DTD/sodipodi-0.dtd"
   xmlns:inkscape="http://www.inkscape.org/namespaces/inkscape"
   id="svg2443"
   sodipodi:version="0.32"
   inkscape:version="0.48.0 r9654"
   width="440.66803"
   height="369.36115"
   xml:space="preserve"
   sodipodi:docname="laptop.svg"
   inkscape:output_extension="org.inkscape.output.svg.inkscape"
   version="1.1"><title
     id="title3834">ordinateur portable</title><metadata
     id="metadata2448"><rdf:RDF><cc:Work
         rdf:about=""><dc:format>image/svg+xml</dc:format><dc:type
           rdf:resource="http://purl.org/dc/dcmitype/StillImage" /><dc:title>ordinateur portable</dc:title></cc:Work></rdf:RDF></metadata><defs
     id="defs2446"><inkscape:perspective
       sodipodi:type="inkscape:persp3d"
       inkscape:vp_x="0 : 526.18109 : 1"
       inkscape:vp_y="0 : 1000 : 0"
       inkscape:vp_z="744.09448 : 526.18109 : 1"
       inkscape:persp3d-origin="372.04724 : 350.78739 : 1"
       id="perspective2450" /><clipPath
       clipPathUnits="userSpaceOnUse"
       id="clipPath2564"><path
         d="m 72.54,579.24 466.92,0 0,-237.092 -466.92,0 0,237.092 z"
         id="path2566"
         inkscape:connector-curvature="0" /></clipPath></defs><sodipodi:namedview
     inkscape:window-height="999"
     inkscape:window-width="1618"
     inkscape:pageshadow="2"
     inkscape:pageopacity="0.0"
     guidetolerance="10.0"
     gridtolerance="10.0"
     objecttolerance="10.0"
     borderopacity="1.0"
     bordercolor="#666666"
     pagecolor="#ffffff"
     id="base"
     showgrid="false"
     inkscape:zoom="0.72283115"
     inkscape:cx="141.17033"
     inkscape:cy="93.377398"
     inkscape:window-x="31"
     inkscape:window-y="6"
     inkscape:current-layer="g2452"
     inkscape:window-maximized="0"
     fit-margin-top="0"
     fit-margin-left="0"
     fit-margin-right="0"
     fit-margin-bottom="0" /><g
     id="g2452"
     inkscape:groupmode="layer"
     inkscape:label="System Description and Engineering"
     transform="matrix(1.25,0,0,-1.25,-125.7878,777.94928)"><g
       id="g3823"><path
         sodipodi:nodetypes="ccccccc"
         transform="matrix(0.8,0,0,-0.8,75.32288,635.7264)"
         inkscape:connector-curvature="0"
         id="path3009"
         d="m 104.78934,17.708724 c -5.059718,0.73201 -9.274071,0.383137 -8.813867,11.851572 l 0.79494,213.097734 317.168587,7.2814 -0.43431,-217.261865 c 0.6659,-9.300489 -1.33655,-14.005742 -9.71199,-13.931255 z"
         style="fill:#ffffff;fill-opacity:1;stroke:#333333;stroke-width:2;stroke-linecap:round;stroke-linejoin:round;stroke-miterlimit:4;stroke-opacity:1;stroke-dasharray:none;stroke-dashoffset:3.00300009" /><path
         sodipodi:nodetypes="ccccccc"
         inkscape:connector-curvature="0"
         id="path3781"
         d="m 101.43024,351.47507 0.22921,-13.60736 c -0.47437,-7.11015 2.82258,-9.2847 6.53164,-10.19721 l 336.26264,0.64304 c 4.31584,0.008 8.34363,3.92159 7.87344,11.06385 l -0.11461,13.4704 z"
         style="fill:#ffffff;fill-opacity:1;stroke:#333333;stroke-width:1.60000002;stroke-linecap:round;stroke-linejoin:round;stroke-miterlimit:4;stroke-opacity:1;stroke-dasharray:none;stroke-dashoffset:3.00300009" /><path
         sodipodi:nodetypes="ccccccc"
         inkscape:connector-curvature="0"
         id="path3779"
         d="m 153.01383,445.00293 -51.0504,-92.06763 c -0.78325,-2.73983 0.0931,-5.51799 3.9362,-5.46955 l 339.88549,0.26054 c 5.79085,-0.37745 7.89413,2.78577 5.20856,7.66018 l -44.3372,89.53321 z"
         style="fill:#ffffff;fill-opacity:1;stroke:#333333;stroke-width:1.60000002;stroke-linecap:round;stroke-linejoin:round;stroke-miterlimit:4;stroke-opacity:1;stroke-dasharray:none;stroke-dashoffset:3.00300009" /><path
         sodipodi:nodetypes="ccccccccc"
         inkscape:connector-curvature="0"
         id="path3783"
         d="m 169.38859,433.52776 c -3.07758,0.22033 -4.83439,-3.47732 -6.15965,-6.02382 l -17.5669,-35.73158 c -2.48841,-4.54375 1.46162,-5.48331 4.61686,-5.54577 l 257.85502,0.0624 c 3.75085,-0.0873 5.41137,3.32426 3.04956,7.0072 l -16.46517,35.48352 c -1.0228,2.04829 -2.42393,4.02868 -4.8623,4.00539 z"
         style="fill:#ffffff;fill-opacity:1;stroke:#333333;stroke-width:0.80000001;stroke-linecap:round;stroke-linejoin:round;stroke-miterlimit:4;stroke-opacity:1;stroke-dasharray:none;stroke-dashoffset:3.00300009" /><path
         sodipodi:nodetypes="ccccccccc"
         inkscape:connector-curvature="0"
         id="path3785"
         d="m 248.38304,378.32164 -8.31556,-18.98462 c -1.28026,-2.76939 -0.0593,-5.17351 2.56185,-5.02381 l 68.48103,0.19565 c 2.13825,-0.2602 4.08555,2.95554 2.99578,5.55445 l -7.30252,17.95791 c -0.72689,2.1125 -1.97856,2.81758 -3.35001,2.76689 l -51.01748,-0.5213 c -2.59387,0.12769 -3.21049,-0.8152 -4.05309,-1.94517 z"
         style="fill:#ffffff;fill-opacity:1;stroke:#333333;stroke-width:0.80000001;stroke-linecap:round;stroke-linejoin:round;stroke-miterlimit:4;stroke-opacity:1;stroke-dasharray:none;stroke-dashoffset:3.00300009" /><path
         sodipodi:nodetypes="ccccc"
         inkscape:connector-curvature="0"
         id="path3787"
         d="m 167.2414,605.84651 0.17464,-147.56693 222.56737,0 0.55337,147.62006 z"
         style="fill:#ffffff;fill-opacity:1;stroke:#333333;stroke-width:0.81635237;stroke-linecap:round;stroke-linejoin:round;stroke-miterlimit:4;stroke-opacity:1;stroke-dasharray:none;stroke-dashoffset:3.00300009" /><path
         transform="matrix(0.55775828,0,0,-0.59474771,140.84777,589.96466)"
         d="m 260.0884,-38.567585 c 0,4.202318 -3.71635,7.608969 -8.3007,7.608969 -4.58434,0 -8.30069,-3.406651 -8.30069,-7.608969 0,-4.202318 3.71635,-7.608969 8.30069,-7.608969 4.58435,0 8.3007,3.406651 8.3007,7.608969 z"
         sodipodi:ry="7.6089692"
         sodipodi:rx="8.3006935"
         sodipodi:cy="-38.567585"
         sodipodi:cx="251.7877"
         id="path3789"
         style="fill:#ffffff;fill-opacity:1;stroke:#333333;stroke-width:1;stroke-linecap:round;stroke-linejoin:round;stroke-miterlimit:4;stroke-opacity:1;stroke-dasharray:none;stroke-dashoffset:3.00300009"
         sodipodi:type="arc" /></g></g></svg>